<svg width="17" height="17" viewBox="0 0 17 17" fill="none" xmlns="http://www.w3.org/2000/svg">
<path d="M7.04167 9.58333C7.375 9.91667 7.80556 10.0799 8.33333 10.0729C8.86111 10.066 9.25 9.875 9.5 9.5L14.1667 2.5L7.16667 7.16667C6.79167 7.41667 6.59375 7.79861 6.57292 8.3125C6.55208 8.82639 6.70833 9.25 7.04167 9.58333ZM8.33333 0C9.15278 0 9.94097 0.114583 10.6979 0.34375C11.4549 0.572917 12.1667 0.916667 12.8333 1.375L11.25 2.375C10.7917 2.13889 10.316 1.96181 9.82292 1.84375C9.32986 1.72569 8.83333 1.66667 8.33333 1.66667C6.48611 1.66667 4.91319 2.31597 3.61458 3.61458C2.31597 4.91319 1.66667 6.48611 1.66667 8.33333C1.66667 8.91667 1.74653 9.49306 1.90625 10.0625C2.06597 10.6319 2.29167 11.1667 2.58333 11.6667H14.0833C14.4028 11.1389 14.6354 10.5903 14.7812 10.0208C14.9271 9.45139 15 8.86111 15 8.25C15 7.75 14.941 7.26389 14.8229 6.79167C14.7049 6.31944 14.5278 5.86111 14.2917 5.41667L15.2917 3.83333C15.7083 4.48611 16.0382 5.18056 16.2812 5.91667C16.5243 6.65278 16.6528 7.41667 16.6667 8.20833C16.6806 9 16.5903 9.75694 16.3958 10.4792C16.2014 11.2014 15.9167 11.8889 15.5417 12.5417C15.3889 12.7917 15.1806 12.9861 14.9167 13.125C14.6528 13.2639 14.375 13.3333 14.0833 13.3333H2.58333C2.29167 13.3333 2.01389 13.2639 1.75 13.125C1.48611 12.9861 1.27778 12.7917 1.125 12.5417C0.763889 11.9167 0.486111 11.2535 0.291667 10.5521C0.0972222 9.85069 0 9.11111 0 8.33333C0 7.18056 0.21875 6.10069 0.65625 5.09375C1.09375 4.08681 1.69097 3.20486 2.44792 2.44792C3.20486 1.69097 4.09028 1.09375 5.10417 0.65625C6.11806 0.21875 7.19444 0 8.33333 0Z" fill="#8F8FCE"/>
</svg>
