<svg width="97" height="40" viewBox="0 0 97 40" fill="none" xmlns="http://www.w3.org/2000/svg">
<path d="M0.00557183 5.66196C0.00557183 3.88951 0.0107513 2.11706 0.000392354 0.344611C-0.000470893 0.00355342 -0.0185991 -0.101119 0.336195 0.106481C6.37719 3.64528 12.4242 7.17186 18.4704 10.7019C20.7097 12.0095 22.9524 13.31 25.1873 14.6245C29.1168 16.9343 29.5614 22.3267 26.0247 25.0612C24.8947 25.9352 23.5515 26.4717 22.3403 27.2236C22.1539 27.3387 22.0115 27.2271 21.8638 27.1407C18.4057 25.1223 14.9475 23.1021 11.4893 21.0837C8.71487 19.4639 5.96025 17.81 3.15728 16.2417C1.79681 15.4811 0.978451 14.3628 0.470862 12.9323C0.0495974 11.7452 0.0245633 10.5135 0.00902482 9.27926C-0.00651362 8.07378 0.00557183 6.86744 0.00557183 5.66196C0.0219735 5.66196 -0.0108299 5.66196 0.00557183 5.66196Z" fill="#FD3566"/>
<path d="M0.604736 20.0018C3.4124 21.6355 6.12592 23.2138 8.8377 24.793C10.8216 25.9478 12.8143 27.0876 14.7843 28.267C16.2077 29.1194 16.7063 30.8024 16.0351 32.3069C15.764 32.9142 15.3325 33.3764 14.7633 33.706C14.3231 33.9608 13.8699 34.1937 13.4393 34.4626C13.2309 34.5927 13.0775 34.5567 12.8849 34.4442C9.49668 32.4668 6.13638 30.4403 2.70286 28.5465C1.19486 27.7151 0.638732 26.5305 0.650063 24.9073C0.659652 23.459 0.62217 22.0107 0.605608 20.5624C0.603865 20.4069 0.605608 20.2505 0.605608 20L0.604736 20.0018Z" fill="#FD3566"/>
<path d="M6.65201 37.0073C6.64501 38.6803 5.31353 40.0017 3.63715 39.9999C1.96164 39.9982 0.596892 38.6321 0.60477 36.9635C0.611773 35.3168 1.98265 33.9393 3.61439 33.9393C5.32404 33.9393 6.65989 35.2888 6.65289 37.0073H6.65201Z" fill="#FD3566"/>
<path d="M46.1995 29.0092C45.4373 28.8141 44.6638 28.6601 43.9257 28.377C43.5857 28.2464 43.3198 28.0662 43.3149 27.6497C43.3092 27.2211 43.486 26.9053 43.9073 26.74C44.579 26.4767 45.2457 26.5278 45.8799 26.8741C46.0807 26.9834 46.1917 27.1813 46.3041 27.3807C46.4052 27.5596 46.2822 27.854 46.5261 27.9278C46.7205 27.9867 46.9468 27.942 47.1582 27.9427C47.2289 27.9427 47.2996 27.9427 47.3703 27.9427C47.5824 27.9427 47.7959 27.9271 48.0059 27.9463C48.2498 27.969 48.3304 27.8987 48.307 27.6376C48.218 26.6584 47.7443 25.9304 46.8718 25.5138C45.6211 24.9164 44.3266 24.8795 43.0384 25.4017C41.9857 25.8282 41.4038 26.723 41.4145 27.8249C41.4243 28.846 41.9744 29.5613 43.0809 29.9991C43.7398 30.2595 44.4312 30.4071 45.1128 30.5859C45.4889 30.6846 45.8615 30.7903 46.2002 30.9904C46.5268 31.1834 46.7382 31.4424 46.7156 31.8476C46.6937 32.2435 46.4787 32.5089 46.1408 32.6728C45.6261 32.9226 45.0796 32.9616 44.5217 32.8658C43.5807 32.7033 43.2244 32.3705 43.0257 31.4403C42.9868 31.2572 42.89 31.2544 42.7521 31.2551C42.2933 31.2579 41.833 31.2679 41.3749 31.2515C41.1444 31.243 41.102 31.3324 41.1126 31.5403C41.1536 32.3379 41.4654 33.007 42.0621 33.5265C43.4011 34.6916 46.22 34.7569 47.6234 33.6691C48.8309 32.7324 48.9723 30.8989 47.9161 29.8615C47.4374 29.391 46.8358 29.1724 46.2002 29.01L46.1995 29.0092Z" fill="white"/>
<path d="M52.7194 27.5681C50.7087 27.5525 49.3767 28.888 49.354 30.9422C49.3314 33.0234 50.6387 34.3915 52.6621 34.4036C54.6934 34.4156 56.0296 33.093 56.0466 31.0522C56.0642 28.9476 54.7619 27.5844 52.7187 27.5681H52.7194ZM54.1603 31.864C53.9673 32.6197 53.4752 33.0355 52.7427 33.0539C52.0074 33.0724 51.4772 32.6906 51.2616 31.9434C51.0926 31.3566 51.0806 30.7542 51.2311 30.1602C51.4496 29.2995 51.9488 28.9007 52.7463 28.9206C53.5127 28.939 54.033 29.4081 54.197 30.2497C54.2465 30.503 54.2557 30.7641 54.2762 30.9578C54.2501 31.3062 54.2303 31.5879 54.1603 31.864Z" fill="white"/>
<path d="M78.6213 27.57C76.5752 27.5594 75.2722 28.8785 75.2538 30.9774C75.2362 33.0381 76.5484 34.3955 78.5647 34.4033C80.6193 34.4111 81.9273 33.0899 81.9336 30.9987C81.94 28.9296 80.6363 27.5799 78.6206 27.57H78.6213ZM79.9406 32.188C79.662 32.7989 79.1777 33.0885 78.5032 33.0537C77.8592 33.0203 77.4152 32.6918 77.2073 32.0851C76.9507 31.3372 76.9542 30.5758 77.2236 29.8307C77.4378 29.239 77.9461 28.9168 78.5951 28.9168C79.2406 28.9168 79.7327 29.2468 79.9639 29.8357C80.1081 30.2033 80.1583 30.5865 80.159 30.9789C80.1583 31.3947 80.1152 31.8048 79.9406 32.1866V32.188Z" fill="white"/>
<path d="M89.1084 29.5779C89.0568 28.4815 88.5371 27.8649 87.6717 27.6698C86.561 27.4193 85.5627 27.5711 84.7737 28.5561C84.7737 28.3709 84.7617 28.1857 84.7773 28.0019C84.7942 27.8011 84.7249 27.7336 84.5213 27.7414C84.1332 27.7564 83.7436 27.7542 83.3555 27.7414C83.1632 27.7351 83.0833 27.7869 83.084 27.9948C83.0904 29.9923 83.0903 31.9897 83.0847 33.9872C83.0847 34.1831 83.1625 34.2242 83.3371 34.2185C83.7139 34.2079 84.0922 34.1951 84.4669 34.2214C84.7801 34.2434 84.8904 34.1618 84.8826 33.8233C84.8593 32.8072 84.8734 31.7903 84.8762 30.7742C84.8777 30.3591 84.9038 29.9461 85.1039 29.5686C85.3415 29.1209 85.825 28.9229 86.4783 29.0017C86.9294 29.0563 87.1811 29.316 87.3034 29.8418C87.3656 30.1093 87.3748 30.3797 87.3748 30.6522C87.3748 31.7513 87.3762 32.8505 87.3748 33.9496C87.3748 34.0993 87.3621 34.2263 87.5834 34.2193C88.0422 34.2058 88.5018 34.2122 88.9613 34.2171C89.09 34.2185 89.1522 34.1916 89.1508 34.0433C89.1381 32.5546 89.177 31.063 89.107 29.5771L89.1084 29.5779Z" fill="white"/>
<path d="M66.231 27.7398C65.8309 27.7519 65.4293 27.7611 65.0305 27.7363C64.7605 27.7192 64.694 27.8093 64.6968 28.0712C64.7096 29.1228 64.6997 30.1744 64.6982 31.226C64.6982 31.5943 64.665 31.9583 64.5208 32.3017C64.3165 32.7878 63.8308 33.0354 63.2058 32.9801C62.6741 32.9333 62.4075 32.6892 62.2711 32.1279C62.2089 31.8724 62.2025 31.6134 62.2018 31.3537C62.2018 30.2546 62.1947 29.1561 62.2068 28.0577C62.2096 27.8193 62.1615 27.7221 61.902 27.7377C61.5146 27.7604 61.1243 27.7582 60.7369 27.7384C60.4944 27.7263 60.4166 27.7937 60.4187 28.0485C60.4322 29.3122 60.4265 30.5767 60.4265 31.8412C60.4265 32.1612 60.4555 32.4791 60.5227 32.7913C60.6952 33.5953 61.1576 34.1254 61.9812 34.2815C63.0665 34.4872 64.0471 34.3446 64.8015 33.2795C64.8015 33.5641 64.8149 33.75 64.7979 33.9331C64.7788 34.1466 64.8446 34.224 65.0687 34.2126C65.4441 34.1935 65.8231 34.1913 66.1985 34.2141C66.4431 34.229 66.4863 34.1353 66.4855 33.9153C66.4792 31.942 66.4799 29.9693 66.4898 27.996C66.4912 27.7852 66.4255 27.7334 66.2303 27.7398H66.231Z" fill="white"/>
<path d="M94.9022 30.5408C94.5013 30.3995 94.087 30.3116 93.6734 30.2186C93.2612 30.1264 92.8384 30.0675 92.4616 29.856C92.2509 29.7382 92.1095 29.5736 92.13 29.3181C92.1526 29.0449 92.3336 28.8917 92.5776 28.8321C92.9975 28.7299 93.4224 28.7377 93.8283 28.8959C94.0135 28.9683 94.2164 29.0847 94.2397 29.2997C94.2779 29.6481 94.4822 29.6736 94.7537 29.646C94.8937 29.6318 95.0365 29.6438 95.1772 29.6438V29.6424C95.354 29.6424 95.5335 29.6225 95.7068 29.6467C96.0256 29.6907 96.0228 29.5296 95.9684 29.2968C95.8093 28.6164 95.4176 28.1338 94.7778 27.8578C93.993 27.5186 93.1729 27.525 92.3478 27.6265C91.9123 27.6804 91.493 27.7989 91.1261 28.0537C90.5237 28.4709 90.3088 29.0719 90.3569 29.7765C90.4021 30.4301 90.8079 30.8175 91.3742 31.0616C91.7758 31.2347 92.2036 31.327 92.6278 31.4249C93.0979 31.5335 93.5751 31.6236 94.0099 31.8386C94.5367 32.099 94.56 32.6667 94.0609 32.9839C93.7052 33.2102 93.3086 33.2365 92.9028 33.1655C92.3838 33.0747 91.9978 32.8235 91.9045 32.2672C91.8734 32.0834 91.7645 32.1139 91.6514 32.1132C91.2625 32.1132 90.873 32.1288 90.4855 32.1096C90.2423 32.0976 90.1843 32.1685 90.2232 32.407C90.3646 33.2776 90.8793 33.8261 91.6797 34.1178C92.4609 34.4023 93.2711 34.4066 94.0856 34.2987C94.5466 34.2377 94.9835 34.1014 95.3624 33.8233C96.0115 33.3465 96.2632 32.6844 96.1741 31.901C96.0878 31.1439 95.5611 30.7721 94.9015 30.5393L94.9022 30.5408Z" fill="white"/>
<path d="M70.3832 28.9434C70.6533 28.9597 70.9248 28.9398 71.1948 28.9498C71.349 28.9554 71.3907 28.8958 71.4013 28.7468C71.4762 27.7463 71.4798 27.7463 70.4772 27.7435C70.4419 27.7435 70.4058 27.7385 70.3712 27.7442C70.1478 27.7804 70.0905 27.6775 70.0962 27.4653C70.1096 26.9934 70.0891 26.5201 70.106 26.0483C70.1138 25.8233 70.0382 25.7658 69.824 25.7744C69.4005 25.7907 68.9763 25.7871 68.5528 25.7751C68.3668 25.7694 68.3032 25.8297 68.3103 26.0163C68.3223 26.3463 68.3131 26.6777 68.3131 27.0083C68.3131 27.7413 68.3131 27.7576 67.5976 27.7357C67.2964 27.7264 67.2257 27.8208 67.2321 28.111C67.2497 28.9249 67.2363 28.9349 68.0451 28.9412C68.2671 28.9427 68.3237 29.0086 68.3194 29.2222C68.3067 29.836 68.3152 30.4505 68.3152 31.065H68.3336C68.3336 31.6909 68.3138 32.3174 68.3392 32.9426C68.3675 33.6337 68.7062 34.0212 69.3757 34.195C69.7907 34.3029 70.2163 34.2887 70.6398 34.2823C71.3949 34.2709 71.3949 34.2674 71.3942 33.4996C71.3942 33.3109 71.4607 33.0724 71.3716 32.9454C71.2599 32.7865 71.011 32.9227 70.8222 32.9142C70.2609 32.8894 70.1124 32.7609 70.1068 32.1911C70.0969 31.1991 70.1089 30.2064 70.0976 29.2144C70.0947 28.9895 70.1739 28.9299 70.3832 28.9427V28.9434Z" fill="white"/>
<path d="M58.7141 25.2614C58.35 25.2819 57.9823 25.2855 57.6196 25.2592C57.3326 25.2387 57.2421 25.3196 57.2449 25.6197C57.2605 27.1567 57.2527 28.6929 57.252 30.2299C57.252 31.4709 57.257 32.7127 57.2456 33.9538C57.2435 34.1745 57.3008 34.2327 57.5185 34.2213C57.918 34.2007 58.3203 34.2 58.7197 34.2213C58.9679 34.2341 59.0337 34.1574 59.0315 33.9091C59.0195 32.5261 59.0259 31.1431 59.0259 29.7594C59.0259 28.3644 59.0202 26.9693 59.0315 25.5743C59.0337 25.3231 58.9608 25.2472 58.7141 25.2614Z" fill="white"/>
<path d="M74.0611 27.9531C74.0611 27.7821 74.0081 27.7275 73.8384 27.7317C73.4149 27.7417 72.9893 27.7502 72.5665 27.7282C72.3268 27.7154 72.2688 27.7998 72.271 28.0234C72.2794 29.0047 72.2745 29.9861 72.2745 30.9667H72.2717C72.2717 31.9481 72.2808 32.9294 72.2653 33.9101C72.2611 34.167 72.3424 34.2322 72.5842 34.2216C72.9956 34.2038 73.4085 34.2074 73.8207 34.2202C74.0059 34.2258 74.0618 34.1698 74.0611 33.9825C74.0554 31.9729 74.0561 29.9634 74.0611 27.9531Z" fill="white"/>
<path d="M74.0612 25.5061C74.069 25.3216 74.0117 25.2556 73.8251 25.2634C73.509 25.2762 73.1923 25.2677 72.8763 25.2677C72.4737 25.2677 72.2727 25.4735 72.2732 25.885C72.2741 26.4522 72.5586 26.7361 73.1265 26.7365C73.3493 26.7365 73.572 26.728 73.794 26.7401C73.9785 26.75 74.0739 26.7138 74.0605 26.4939C74.0414 26.166 74.0471 25.8354 74.0605 25.5068L74.0612 25.5061Z" fill="white"/>
<path d="M41.1111 20.3554V5.66051H43.5812C44.7821 5.66051 45.8125 5.86343 46.6722 6.26929C47.532 6.66116 48.1939 7.22796 48.6579 7.9697C49.1219 8.69744 49.3539 9.57914 49.3539 10.6148C49.3539 11.6504 49.1219 12.5391 48.6579 13.2808C48.1939 14.0226 47.532 14.5894 46.6722 14.9813C45.8125 15.3731 44.7821 15.569 43.5812 15.569H41.7457L42.2574 15.0232V20.3554H41.1111ZM48.3099 20.3554L44.5842 15.0232H45.8739L49.5791 20.3554H48.3099ZM42.2574 15.1072L41.7457 14.5614H43.5812C45.0824 14.5614 46.2287 14.2185 47.0202 13.5328C47.8118 12.833 48.2075 11.8603 48.2075 10.6148C48.2075 9.36921 47.8118 8.40355 47.0202 7.71779C46.2287 7.03203 45.0824 6.68915 43.5812 6.68915H41.7457L42.2574 6.14334V15.1072Z" fill="white"/>
<path d="M58.232 20.4603C57.1675 20.4603 56.1781 20.2784 55.2638 19.9145C54.3494 19.5367 53.5579 19.0118 52.8892 18.3401C52.2205 17.6683 51.6951 16.8846 51.313 15.9889C50.9445 15.0792 50.7603 14.0856 50.7603 13.0079C50.7603 11.9303 50.9445 10.9437 51.313 10.048C51.6951 9.13829 52.2205 8.34757 52.8892 7.6758C53.5579 7.00404 54.3494 6.48622 55.2638 6.12234C56.1781 5.74448 57.1675 5.55554 58.232 5.55554C59.3101 5.55554 60.2995 5.74448 61.2002 6.12234C62.1146 6.48622 62.9061 7.00404 63.5748 7.6758C64.2435 8.34757 64.7621 9.13829 65.1306 10.048C65.5127 10.9437 65.7037 11.9303 65.7037 13.0079C65.7037 14.0856 65.5127 15.0792 65.1306 15.9889C64.7621 16.8846 64.2435 17.6683 63.5748 18.3401C62.9061 19.0118 62.1146 19.5367 61.2002 19.9145C60.2995 20.2784 59.3101 20.4603 58.232 20.4603ZM58.232 19.4107C59.1327 19.4107 59.9652 19.2498 60.7294 18.9279C61.5073 18.606 62.176 18.1581 62.7355 17.5843C63.3087 16.9965 63.7522 16.3178 64.0661 15.5481C64.3936 14.7783 64.5574 13.9316 64.5574 13.0079C64.5574 12.0843 64.3936 11.2376 64.0661 10.4678C63.7522 9.6981 63.3087 9.02633 62.7355 8.45253C62.176 7.86474 61.5073 7.40989 60.7294 7.08801C59.9652 6.76612 59.1327 6.60518 58.232 6.60518C57.3313 6.60518 56.492 6.76612 55.7141 7.08801C54.9499 7.40989 54.2812 7.86474 53.708 8.45253C53.1485 9.02633 52.705 9.6981 52.3774 10.4678C52.0636 11.2376 51.9066 12.0843 51.9066 13.0079C51.9066 13.9316 52.0636 14.7783 52.3774 15.5481C52.705 16.3178 53.1485 16.9965 53.708 17.5843C54.2812 18.1581 54.9499 18.606 55.7141 18.9279C56.492 19.2498 57.3313 19.4107 58.232 19.4107Z" fill="white"/>
<path d="M75.0838 20.4603C74.0057 20.4603 73.0095 20.2784 72.0951 19.9145C71.1808 19.5367 70.3824 19.0118 69.7001 18.3401C69.0314 17.6683 68.506 16.8846 68.1238 15.9889C67.7554 15.0792 67.5711 14.0856 67.5711 13.0079C67.5711 11.9303 67.7554 10.9437 68.1238 10.048C68.506 9.13829 69.0314 8.34757 69.7001 7.6758C70.3824 7.00404 71.1808 6.48622 72.0951 6.12234C73.0095 5.74448 74.0125 5.55554 75.1043 5.55554C76.1415 5.55554 77.1036 5.72348 77.9906 6.05937C78.8913 6.39525 79.6624 6.90607 80.3038 7.59183L79.5873 8.34757C78.9596 7.73178 78.2772 7.29094 77.5403 7.02503C76.8034 6.74513 76.005 6.60518 75.1452 6.60518C74.2172 6.60518 73.3643 6.76612 72.5864 7.08801C71.8085 7.40989 71.1262 7.86474 70.5394 8.45253C69.9662 9.02633 69.5158 9.70509 69.1883 10.4888C68.8744 11.2586 68.7175 12.0983 68.7175 13.0079C68.7175 13.9176 68.8744 14.7643 69.1883 15.5481C69.5158 16.3178 69.9662 16.9965 70.5394 17.5843C71.1262 18.1581 71.8085 18.606 72.5864 18.9279C73.3643 19.2498 74.2104 19.4107 75.1248 19.4107C75.9709 19.4107 76.7692 19.2778 77.5198 19.0118C78.2704 18.7459 78.9596 18.3051 79.5873 17.6893L80.2424 18.592C79.5873 19.2078 78.8095 19.6766 77.9088 19.9985C77.0081 20.3064 76.0664 20.4603 75.0838 20.4603ZM79.137 18.466V13.0499H80.2424V18.592L79.137 18.466Z" fill="white"/>
<path d="M89.1697 20.4603C88.1052 20.4603 87.1158 20.2784 86.2015 19.9145C85.2871 19.5367 84.4956 19.0118 83.8269 18.3401C83.1582 17.6683 82.6328 16.8846 82.2506 15.9889C81.8822 15.0792 81.6979 14.0856 81.6979 13.0079C81.6979 11.9303 81.8822 10.9437 82.2506 10.048C82.6328 9.13829 83.1582 8.34757 83.8269 7.6758C84.4956 7.00404 85.2871 6.48622 86.2015 6.12234C87.1158 5.74448 88.1052 5.55554 89.1697 5.55554C90.2478 5.55554 91.2372 5.74448 92.1379 6.12234C93.0522 6.48622 93.8438 7.00404 94.5125 7.6758C95.1812 8.34757 95.6998 9.13829 96.0682 10.048C96.4504 10.9437 96.6414 11.9303 96.6414 13.0079C96.6414 14.0856 96.4504 15.0792 96.0682 15.9889C95.6998 16.8846 95.1812 17.6683 94.5125 18.3401C93.8438 19.0118 93.0522 19.5367 92.1379 19.9145C91.2372 20.2784 90.2478 20.4603 89.1697 20.4603ZM89.1697 19.4107C90.0704 19.4107 90.9028 19.2498 91.6671 18.9279C92.445 18.606 93.1137 18.1581 93.6732 17.5843C94.2464 16.9965 94.6899 16.3178 95.0038 15.5481C95.3313 14.7783 95.4951 13.9316 95.4951 13.0079C95.4951 12.0843 95.3313 11.2376 95.0038 10.4678C94.6899 9.6981 94.2464 9.02633 93.6732 8.45253C93.1137 7.86474 92.445 7.40989 91.6671 7.08801C90.9028 6.76612 90.0704 6.60518 89.1697 6.60518C88.269 6.60518 87.4297 6.76612 86.6518 7.08801C85.8876 7.40989 85.2189 7.86474 84.6457 8.45253C84.0862 9.02633 83.6426 9.6981 83.3151 10.4678C83.0012 11.2376 82.8443 12.0843 82.8443 13.0079C82.8443 13.9316 83.0012 14.7783 83.3151 15.5481C83.6426 16.3178 84.0862 16.9965 84.6457 17.5843C85.2189 18.1581 85.8876 18.606 86.6518 18.9279C87.4297 19.2498 88.269 19.4107 89.1697 19.4107Z" fill="white"/>
</svg>
