<svg width="97" height="40" viewBox="0 0 97 40" fill="none" xmlns="http://www.w3.org/2000/svg">
<path d="M0.00557183 5.66196C0.00557183 3.88951 0.0107513 2.11706 0.000392354 0.344611C-0.000470893 0.00355342 -0.0185991 -0.101119 0.336195 0.106481C6.37719 3.64528 12.4242 7.17186 18.4704 10.7019C20.7097 12.0095 22.9524 13.31 25.1873 14.6245C29.1168 16.9343 29.5614 22.3267 26.0247 25.0612C24.8947 25.9352 23.5515 26.4717 22.3403 27.2236C22.1539 27.3387 22.0115 27.2271 21.8638 27.1407C18.4057 25.1223 14.9475 23.1021 11.4893 21.0837C8.71487 19.4639 5.96025 17.81 3.15728 16.2417C1.79681 15.4811 0.978451 14.3628 0.470862 12.9323C0.0495974 11.7452 0.0245633 10.5135 0.00902482 9.27926C-0.00651362 8.07378 0.00557183 6.86744 0.00557183 5.66196C0.0219735 5.66196 -0.0108299 5.66196 0.00557183 5.66196Z" fill="#FD3566"/>
<path d="M0.604858 20.0018C3.41252 21.6355 6.12604 23.2138 8.83782 24.793C10.8217 25.9478 12.8144 27.0876 14.7844 28.267C16.2078 29.1194 16.7064 30.8024 16.0352 32.3069C15.7641 32.9142 15.3327 33.3764 14.7635 33.706C14.3233 33.9608 13.87 34.1937 13.4394 34.4626C13.2311 34.5927 13.0776 34.5567 12.885 34.4442C9.4968 32.4668 6.1365 30.4403 2.70298 28.5465C1.19498 27.7151 0.638854 26.5305 0.650185 24.9073C0.659774 23.459 0.622292 22.0107 0.60573 20.5624C0.603987 20.4069 0.60573 20.2505 0.60573 20L0.604858 20.0018Z" fill="#FD3566"/>
<path d="M6.65213 37.0075C6.64513 38.6805 5.31365 40.0018 3.63727 40.0001C1.96176 39.9983 0.597014 38.6322 0.604892 36.9636C0.611896 35.3169 1.98277 33.9395 3.61451 33.9395C5.32416 33.9395 6.66001 35.2889 6.65301 37.0075H6.65213Z" fill="#FD3566"/>
<path d="M46.1996 29.0094C45.4374 28.8142 44.664 28.6602 43.9259 28.3771C43.5858 28.2466 43.32 28.0663 43.315 27.6498C43.3093 27.2212 43.4861 26.9054 43.9075 26.7401C44.5791 26.4769 45.2458 26.5279 45.88 26.8742C46.0808 26.9835 46.1918 27.1815 46.3042 27.3809C46.4053 27.5597 46.2823 27.8542 46.5262 27.928C46.7206 27.9869 46.9469 27.9421 47.1583 27.9429C47.229 27.9429 47.2997 27.9429 47.3704 27.9429C47.5825 27.9429 47.796 27.9272 48.006 27.9464C48.2499 27.9691 48.3305 27.8989 48.3072 27.6377C48.2181 26.6585 47.7444 25.9305 46.8719 25.5139C45.6213 24.9165 44.3267 24.8796 43.0386 25.4018C41.9858 25.8283 41.404 26.7231 41.4146 27.8251C41.4245 28.8462 41.9745 29.5614 43.081 29.9992C43.7399 30.2597 44.4314 30.4072 45.1129 30.5861C45.489 30.6847 45.8616 30.7904 46.2003 30.9905C46.5269 31.1835 46.7383 31.4425 46.7157 31.8477C46.6938 32.2437 46.4788 32.509 46.1409 32.673C45.6262 32.9227 45.0797 32.9618 44.5219 32.866C43.5808 32.7035 43.2245 32.3707 43.0258 31.4404C42.987 31.2573 42.8901 31.2545 42.7522 31.2552C42.2934 31.258 41.8331 31.268 41.375 31.2517C41.1445 31.2431 41.1021 31.3325 41.1127 31.5405C41.1537 32.338 41.4655 33.0072 42.0622 33.5266C43.4013 34.6917 46.2201 34.757 47.6235 33.6692C48.8311 32.7326 48.9725 30.899 47.9162 29.8616C47.4375 29.3911 46.8359 29.1726 46.2003 29.0101L46.1996 29.0094Z" fill="#21214C"/>
<path d="M52.7195 27.5685C50.7088 27.5529 49.3768 28.8883 49.3542 30.9426C49.3315 33.0238 50.6388 34.3919 52.6622 34.4039C54.6935 34.416 56.0297 33.0933 56.0467 31.0526C56.0644 28.9479 54.7621 27.5848 52.7188 27.5685H52.7195ZM54.1604 31.8643C53.9674 32.62 53.4753 33.0358 52.7428 33.0543C52.0076 33.0727 51.4773 32.691 51.2617 31.9438C51.0927 31.357 51.0807 30.7545 51.2313 30.1606C51.4497 29.2999 51.9489 28.9011 52.7464 28.921C53.5128 28.9394 54.0331 29.4084 54.1972 30.25C54.2466 30.5033 54.2558 30.7645 54.2763 30.9582C54.2502 31.3066 54.2304 31.5883 54.1604 31.8643Z" fill="#21214C"/>
<path d="M78.6214 27.5699C76.5754 27.5592 75.2723 28.8784 75.254 30.9773C75.2363 33.038 76.5485 34.3954 78.5649 34.4032C80.6194 34.411 81.9274 33.0898 81.9337 30.9986C81.9401 28.9295 80.6364 27.5798 78.6207 27.5699H78.6214ZM79.9407 32.1879C79.6621 32.7988 79.1778 33.0883 78.5034 33.0536C77.8593 33.0202 77.4153 32.6917 77.2074 32.085C76.9508 31.3371 76.9543 30.5757 77.2237 29.8306C77.4379 29.2388 77.9462 28.9167 78.5953 28.9167C79.2408 28.9167 79.7328 29.2466 79.964 29.8356C80.1083 30.2032 80.1585 30.5863 80.1592 30.9787C80.1585 31.3946 80.1153 31.8047 79.9407 32.1864V32.1879Z" fill="#21214C"/>
<path d="M89.1084 29.578C89.0568 28.4817 88.5371 27.865 87.6717 27.6699C86.561 27.4194 85.5627 27.5713 84.7737 28.5562C84.7737 28.371 84.7617 28.1858 84.7773 28.002C84.7942 27.8012 84.7249 27.7338 84.5213 27.7416C84.1332 27.7565 83.7436 27.7543 83.3555 27.7416C83.1632 27.7352 83.0833 27.787 83.084 27.9949C83.0904 29.9924 83.0903 31.9899 83.0847 33.9873C83.0847 34.1832 83.1625 34.2243 83.3371 34.2187C83.7139 34.208 84.0922 34.1952 84.4669 34.2215C84.7801 34.2435 84.8904 34.1619 84.8826 33.8234C84.8593 32.8073 84.8734 31.7905 84.8762 30.7743C84.8777 30.3592 84.9038 29.9463 85.1039 29.5688C85.3415 29.121 85.825 28.923 86.4783 29.0018C86.9294 29.0564 87.1811 29.3161 87.3034 29.8419C87.3656 30.1095 87.3748 30.3798 87.3748 30.6523C87.3748 31.7514 87.3762 32.8506 87.3748 33.9497C87.3748 34.0995 87.3621 34.2265 87.5834 34.2194C88.0422 34.2059 88.5018 34.2123 88.9613 34.2172C89.09 34.2187 89.1522 34.1917 89.1508 34.0434C89.1381 32.5547 89.177 31.0631 89.107 29.5773L89.1084 29.578Z" fill="#21214C"/>
<path d="M66.2312 27.7399C65.831 27.752 65.4294 27.7612 65.0307 27.7364C64.7606 27.7193 64.6941 27.8095 64.697 28.0713C64.7097 29.1229 64.6998 30.1745 64.6984 31.2261C64.6984 31.5944 64.6651 31.9584 64.5209 32.3018C64.3166 32.7879 63.8309 33.0356 63.2059 32.9802C62.6742 32.9334 62.4077 32.6893 62.2712 32.128C62.209 31.8725 62.2026 31.6135 62.2019 31.3538C62.2019 30.2547 62.1949 29.1563 62.2069 28.0578C62.2097 27.8194 62.1616 27.7222 61.9022 27.7378C61.5147 27.7605 61.1245 27.7584 60.737 27.7385C60.4945 27.7264 60.4167 27.7938 60.4189 28.0486C60.4323 29.3124 60.4266 30.5768 60.4266 31.8413C60.4266 32.1613 60.4556 32.4792 60.5228 32.7915C60.6953 33.5954 61.1577 34.1255 61.9813 34.2816C63.0666 34.4874 64.0472 34.3447 64.8016 33.2797C64.8016 33.5642 64.815 33.7501 64.7981 33.9332C64.779 34.1468 64.8447 34.2241 65.0688 34.2128C65.4443 34.1936 65.8232 34.1915 66.1986 34.2142C66.4433 34.2291 66.4864 34.1354 66.4857 33.9154C66.4793 31.9421 66.48 29.9694 66.4899 27.9961C66.4913 27.7853 66.4256 27.7335 66.2304 27.7399H66.2312Z" fill="#21214C"/>
<path d="M94.9023 30.5411C94.5014 30.3999 94.0871 30.3119 93.6735 30.219C93.2614 30.1267 92.8386 30.0678 92.4617 29.8564C92.251 29.7386 92.1096 29.574 92.1301 29.3185C92.1528 29.0453 92.3338 28.892 92.5777 28.8324C92.9976 28.7303 93.4226 28.7381 93.8284 28.8963C94.0136 28.9687 94.2165 29.085 94.2398 29.3001C94.278 29.6485 94.4824 29.674 94.7538 29.6463C94.8938 29.6321 95.0366 29.6442 95.1773 29.6442V29.6428C95.3541 29.6428 95.5337 29.6229 95.7069 29.647C96.0257 29.691 96.0229 29.53 95.9685 29.2972C95.8094 28.6167 95.4177 28.1342 94.7779 27.8582C93.9931 27.519 93.173 27.5254 92.3479 27.6269C91.9124 27.6808 91.4931 27.7993 91.1262 28.054C90.5238 28.4713 90.3089 29.0723 90.357 29.7769C90.4022 30.4304 90.808 30.8179 91.3744 31.062C91.7759 31.2351 92.2037 31.3273 92.6279 31.4253C93.098 31.5338 93.5753 31.6239 94.0101 31.8389C94.5368 32.0994 94.5601 32.667 94.061 32.9842C93.7053 33.2106 93.3087 33.2368 92.9029 33.1659C92.384 33.075 91.9979 32.8239 91.9046 32.2675C91.8735 32.0838 91.7646 32.1143 91.6515 32.1136C91.2627 32.1136 90.8731 32.1292 90.4857 32.11C90.2424 32.0979 90.1845 32.1689 90.2234 32.4073C90.3648 33.278 90.8795 33.8265 91.6798 34.1181C92.461 34.4027 93.2713 34.4069 94.0857 34.2991C94.5467 34.2381 94.9836 34.1018 95.3626 33.8237C96.0116 33.3468 96.2633 32.6848 96.1742 31.9014C96.088 31.1443 95.5612 30.7724 94.9016 30.5397L94.9023 30.5411Z" fill="#21214C"/>
<path d="M70.3834 28.9437C70.6535 28.9601 70.925 28.9402 71.1951 28.9501C71.3492 28.9558 71.3909 28.8962 71.4015 28.7472C71.4765 27.7467 71.48 27.7467 70.4775 27.7438C70.4421 27.7438 70.4061 27.7389 70.3714 27.7445C70.148 27.7807 70.0907 27.6778 70.0964 27.4657C70.1098 26.9938 70.0893 26.5205 70.1063 26.0486C70.1141 25.8237 70.0384 25.7662 69.8242 25.7747C69.4007 25.791 68.9765 25.7875 68.553 25.7754C68.3671 25.7698 68.3034 25.8301 68.3105 26.0167C68.3225 26.3467 68.3133 26.678 68.3133 27.0087C68.3133 27.7417 68.3133 27.758 67.5978 27.736C67.2967 27.7268 67.226 27.8212 67.2323 28.1114C67.25 28.9253 67.2366 28.9352 68.0454 28.9416C68.2674 28.943 68.3239 29.009 68.3197 29.2226C68.307 29.8364 68.3154 30.4509 68.3154 31.0654H68.3338C68.3338 31.6912 68.314 32.3178 68.3395 32.943C68.3678 33.6341 68.7064 34.0215 69.376 34.1954C69.791 34.3032 70.2166 34.289 70.6401 34.2826C71.3952 34.2713 71.3952 34.2677 71.3945 33.5C71.3945 33.3112 71.4609 33.0728 71.3718 32.9458C71.2601 32.7868 71.0113 32.9231 70.8225 32.9146C70.2611 32.8897 70.1127 32.7613 70.107 32.1915C70.0971 31.1995 70.1091 30.2068 70.0978 29.2148C70.095 28.9899 70.1742 28.9302 70.3834 28.943V28.9437Z" fill="#21214C"/>
<path d="M58.7143 25.2615C58.3502 25.2821 57.9826 25.2856 57.6199 25.2594C57.3328 25.2388 57.2424 25.3197 57.2452 25.6198C57.2607 27.1568 57.253 28.693 57.2522 30.23C57.2522 31.4711 57.2572 32.7128 57.2459 33.9539C57.2438 34.1746 57.301 34.2328 57.5188 34.2214C57.9182 34.2008 58.3205 34.2001 58.72 34.2214C58.9682 34.2342 59.0339 34.1576 59.0318 33.9092C59.0198 32.5262 59.0261 31.1432 59.0261 29.7596C59.0261 28.3645 59.0205 26.9695 59.0318 25.5744C59.0339 25.3232 58.9611 25.2473 58.7143 25.2615Z" fill="#21214C"/>
<path d="M74.0612 27.9532C74.0612 27.7822 74.0082 27.7276 73.8385 27.7318C73.415 27.7418 72.9894 27.7503 72.5666 27.7283C72.3269 27.7155 72.269 27.8 72.2711 28.0235C72.2796 29.0048 72.2746 29.9862 72.2746 30.9668H72.2718C72.2718 31.9482 72.281 32.9296 72.2654 33.9102C72.2612 34.1671 72.3425 34.2324 72.5843 34.2217C72.9958 34.204 73.4086 34.2075 73.8208 34.2203C74.0061 34.226 74.0619 34.1699 74.0612 33.9826C74.0556 31.973 74.0563 29.9635 74.0612 27.9532Z" fill="#21214C"/>
<path d="M74.0612 25.506C74.069 25.3215 74.0117 25.2555 73.8251 25.2633C73.509 25.2761 73.1923 25.2676 72.8763 25.2676C72.4737 25.2676 72.2727 25.4733 72.2732 25.8849C72.2741 26.4521 72.5586 26.7359 73.1265 26.7364C73.3493 26.7364 73.572 26.7279 73.794 26.74C73.9785 26.7499 74.0739 26.7137 74.0605 26.4937C74.0414 26.1659 74.0471 25.8352 74.0605 25.5067L74.0612 25.506Z" fill="#21214C"/>
<path d="M41.1112 20.3555V5.66063H43.5813C44.7823 5.66063 45.8126 5.86356 46.6724 6.26942C47.5321 6.66128 48.194 7.22808 48.658 7.96982C49.122 8.69757 49.354 9.57926 49.354 10.6149C49.354 11.6505 49.122 12.5392 48.658 13.281C48.194 14.0227 47.5321 14.5895 46.6724 14.9814C45.8126 15.3732 44.7823 15.5692 43.5813 15.5692H41.7458L42.2576 15.0234V20.3555H41.1112ZM48.31 20.3555L44.5844 15.0234H45.874L49.5792 20.3555H48.31ZM42.2576 15.1073L41.7458 14.5615H43.5813C45.0825 14.5615 46.2288 14.2186 47.0204 13.5329C47.8119 12.8331 48.2077 11.8605 48.2077 10.6149C48.2077 9.36933 47.8119 8.40367 47.0204 7.71791C46.2288 7.03215 45.0825 6.68927 43.5813 6.68927H41.7458L42.2576 6.14346V15.1073Z" fill="#21214C"/>
<path d="M58.2321 20.4605C57.1677 20.4605 56.1783 20.2785 55.2639 19.9146C54.3496 19.5368 53.558 19.012 52.8893 18.3402C52.2206 17.6684 51.6952 16.8847 51.3131 15.989C50.9446 15.0793 50.7604 14.0857 50.7604 13.0081C50.7604 11.9304 50.9446 10.9438 51.3131 10.0481C51.6952 9.13841 52.2206 8.34769 52.8893 7.67592C53.558 7.00416 54.3496 6.48634 55.2639 6.12247C56.1783 5.7446 57.1677 5.55566 58.2321 5.55566C59.3102 5.55566 60.2997 5.7446 61.2004 6.12247C62.1147 6.48634 62.9062 7.00416 63.5749 7.67592C64.2436 8.34769 64.7622 9.13841 65.1307 10.0481C65.5128 10.9438 65.7039 11.9304 65.7039 13.0081C65.7039 14.0857 65.5128 15.0793 65.1307 15.989C64.7622 16.8847 64.2436 17.6684 63.5749 18.3402C62.9062 19.012 62.1147 19.5368 61.2004 19.9146C60.2997 20.2785 59.3102 20.4605 58.2321 20.4605ZM58.2321 19.4108C59.1328 19.4108 59.9653 19.2499 60.7295 18.928C61.5074 18.6061 62.1761 18.1583 62.7356 17.5845C63.3088 16.9967 63.7523 16.3179 64.0662 15.5482C64.3938 14.7784 64.5575 13.9317 64.5575 13.0081C64.5575 12.0844 64.3938 11.2377 64.0662 10.4679C63.7523 9.69822 63.3088 9.02645 62.7356 8.45265C62.1761 7.86486 61.5074 7.41002 60.7295 7.08813C59.9653 6.76624 59.1328 6.6053 58.2321 6.6053C57.3314 6.6053 56.4921 6.76624 55.7143 7.08813C54.95 7.41002 54.2813 7.86486 53.7081 8.45265C53.1486 9.02645 52.7051 9.69822 52.3776 10.4679C52.0637 11.2377 51.9067 12.0844 51.9067 13.0081C51.9067 13.9317 52.0637 14.7784 52.3776 15.5482C52.7051 16.3179 53.1486 16.9967 53.7081 17.5845C54.2813 18.1583 54.95 18.6061 55.7143 18.928C56.4921 19.2499 57.3314 19.4108 58.2321 19.4108Z" fill="#21214C"/>
<path d="M75.084 20.4605C74.0058 20.4605 73.0096 20.2785 72.0953 19.9146C71.1809 19.5368 70.3826 19.012 69.7002 18.3402C69.0315 17.6684 68.5061 16.8847 68.124 15.989C67.7555 15.0793 67.5713 14.0857 67.5713 13.0081C67.5713 11.9304 67.7555 10.9438 68.124 10.0481C68.5061 9.13841 69.0315 8.34769 69.7002 7.67592C70.3826 7.00416 71.1809 6.48634 72.0953 6.12247C73.0096 5.7446 74.0127 5.55566 75.1044 5.55566C76.1416 5.55566 77.1037 5.72361 77.9908 6.05949C78.8915 6.39537 79.6625 6.90619 80.3039 7.59195L79.5875 8.34769C78.9597 7.7319 78.2774 7.29106 77.5404 7.02515C76.8035 6.74525 76.0051 6.6053 75.1454 6.6053C74.2174 6.6053 73.3644 6.76624 72.5865 7.08813C71.8087 7.41002 71.1263 7.86486 70.5395 8.45265C69.9663 9.02645 69.516 9.70521 69.1884 10.4889C68.8746 11.2587 68.7176 12.0984 68.7176 13.0081C68.7176 13.9177 68.8746 14.7644 69.1884 15.5482C69.516 16.3179 69.9663 16.9967 70.5395 17.5845C71.1263 18.1583 71.8087 18.6061 72.5865 18.928C73.3644 19.2499 74.2105 19.4108 75.1249 19.4108C75.971 19.4108 76.7694 19.2779 77.5199 19.012C78.2705 18.7461 78.9597 18.3052 79.5875 17.6894L80.2425 18.5921C79.5875 19.2079 78.8096 19.6767 77.9089 19.9986C77.0082 20.3065 76.0665 20.4605 75.084 20.4605ZM79.1371 18.4662V13.05H80.2425V18.5921L79.1371 18.4662Z" fill="#21214C"/>
<path d="M89.1698 20.4605C88.1053 20.4605 87.1159 20.2785 86.2016 19.9146C85.2872 19.5368 84.4957 19.012 83.827 18.3402C83.1583 17.6684 82.6329 16.8847 82.2508 15.989C81.8823 15.0793 81.6981 14.0857 81.6981 13.0081C81.6981 11.9304 81.8823 10.9438 82.2508 10.0481C82.6329 9.13841 83.1583 8.34769 83.827 7.67592C84.4957 7.00416 85.2872 6.48634 86.2016 6.12247C87.1159 5.7446 88.1053 5.55566 89.1698 5.55566C90.2479 5.55566 91.2373 5.7446 92.138 6.12247C93.0524 6.48634 93.8439 7.00416 94.5126 7.67592C95.1813 8.34769 95.6999 9.13841 96.0684 10.0481C96.4505 10.9438 96.6415 11.9304 96.6415 13.0081C96.6415 14.0857 96.4505 15.0793 96.0684 15.989C95.6999 16.8847 95.1813 17.6684 94.5126 18.3402C93.8439 19.012 93.0524 19.5368 92.138 19.9146C91.2373 20.2785 90.2479 20.4605 89.1698 20.4605ZM89.1698 19.4108C90.0705 19.4108 90.903 19.2499 91.6672 18.928C92.4451 18.6061 93.1138 18.1583 93.6733 17.5845C94.2465 16.9967 94.69 16.3179 95.0039 15.5482C95.3314 14.7784 95.4952 13.9317 95.4952 13.0081C95.4952 12.0844 95.3314 11.2377 95.0039 10.4679C94.69 9.69822 94.2465 9.02645 93.6733 8.45265C93.1138 7.86486 92.4451 7.41002 91.6672 7.08813C90.903 6.76624 90.0705 6.6053 89.1698 6.6053C88.2691 6.6053 87.4298 6.76624 86.6519 7.08813C85.8877 7.41002 85.219 7.86486 84.6458 8.45265C84.0863 9.02645 83.6428 9.69822 83.3152 10.4679C83.0013 11.2377 82.8444 12.0844 82.8444 13.0081C82.8444 13.9317 83.0013 14.7784 83.3152 15.5482C83.6428 16.3179 84.0863 16.9967 84.6458 17.5845C85.219 18.1583 85.8877 18.6061 86.6519 18.928C87.4298 19.2499 88.2691 19.4108 89.1698 19.4108Z" fill="#21214C"/>
</svg>
